<svg width="759" height="201" viewBox="0 0 759 201" fill="none" xmlns="http://www.w3.org/2000/svg">
<path d="M711.411 121.421V89.119L714.793 98.4481L679.342 39.791H695.551L724.005 87.0199H714.909L743.596 39.791H758.523L723.072 98.4481L726.571 89.119V121.421H711.411Z" fill="#222222"/>
<path d="M628.649 77.3409H669.347V90.1685H628.649V77.3409ZM629.931 121.421H614.771V39.791H674.362V52.502H629.931V121.421Z" fill="#222222"/>
<path d="M527.145 121.421V39.791H560.729C567.96 39.791 574.14 40.9572 579.271 43.2895C584.48 45.6217 588.484 48.9647 591.283 53.3183C594.081 57.6719 595.481 62.8418 595.481 68.828C595.481 74.8143 594.081 79.9842 591.283 84.3378C588.484 88.6136 584.48 91.9177 579.271 94.25C574.14 96.5046 567.96 97.6318 560.729 97.6318H535.541L542.304 90.7516V121.421H527.145ZM580.554 121.421L559.913 91.8011H576.123L596.88 121.421H580.554ZM542.304 92.3842L535.541 85.1541H560.03C566.716 85.1541 571.73 83.7158 575.073 80.8393C578.494 77.9628 580.204 73.9591 580.204 68.828C580.204 63.6193 578.494 59.6155 575.073 56.8167C571.73 54.018 566.716 52.6186 560.03 52.6186H535.541L542.304 45.1553V92.3842Z" fill="#222222"/>
<path d="M464.896 122.587C458.521 122.587 452.652 121.537 447.288 119.438C441.923 117.339 437.259 114.424 433.294 110.692C429.329 106.883 426.258 102.451 424.082 97.3981C421.905 92.2671 420.816 86.6697 420.816 80.6058C420.816 74.5419 421.905 68.9833 424.082 63.9301C426.258 58.7991 429.329 54.3678 433.294 50.6362C437.259 46.8268 441.923 43.8726 447.288 41.7736C452.652 39.6745 458.483 38.625 464.78 38.625C471.154 38.625 476.985 39.6745 482.272 41.7736C487.636 43.8726 492.3 46.8268 496.265 50.6362C500.23 54.3678 503.301 58.7991 505.478 63.9301C507.654 68.9833 508.743 74.5419 508.743 80.6058C508.743 86.6697 507.654 92.2671 505.478 97.3981C503.301 102.529 500.23 106.96 496.265 110.692C492.3 114.424 487.636 117.339 482.272 119.438C476.985 121.537 471.193 122.587 464.896 122.587ZM464.78 109.293C468.9 109.293 472.709 108.593 476.208 107.194C479.706 105.794 482.738 103.812 485.304 101.246C487.869 98.6031 489.851 95.5712 491.251 92.1505C492.728 88.6521 493.467 84.8039 493.467 80.6058C493.467 76.4077 492.728 72.5983 491.251 69.1777C489.851 65.6793 487.869 62.6473 485.304 60.0819C482.738 57.4386 479.706 55.4173 476.208 54.018C472.709 52.6186 468.9 51.9189 464.78 51.9189C460.659 51.9189 456.85 52.6186 453.352 54.018C449.931 55.4173 446.899 57.4386 444.256 60.0819C441.69 62.6473 439.669 65.6793 438.192 69.1777C436.792 72.5983 436.093 76.4077 436.093 80.6058C436.093 84.7261 436.792 88.5355 438.192 92.0339C439.669 95.5323 441.69 98.6031 444.256 101.246C446.821 103.812 449.853 105.794 453.352 107.194C456.85 108.593 460.659 109.293 464.78 109.293Z" fill="#222222"/>
<path d="M312.939 121.42V39.791H325.417L361.101 99.3804H354.57L389.671 39.791H402.149L402.265 121.42H387.922L387.805 62.2974H390.837L360.984 112.091H354.221L323.901 62.2974H327.4V121.42H312.939Z" fill="#222222"/>
<path d="M42.511 14.5658C29.8858 22.3465 15.23 31.3208 9.93276 34.5038L0.353516 40.2951L0.441804 81.0111L0.574236 121.683L6.75439 125.308C10.1535 127.253 21.9399 134.061 32.8876 140.427C63.038 157.89 126.076 195.378 132.256 199.534L133.712 200.551L159.625 185.078C173.883 176.546 203.46 158.862 225.355 145.732L265.217 121.816L265.306 80.7458L265.438 39.632L264.29 39.0131C262.878 38.3057 220.676 13.3279 208.492 5.98933C203.637 3.07158 199.443 0.684326 199.222 0.684326C198.957 0.684326 191.938 4.70729 183.551 9.65863C143.866 33.0891 133.933 38.9246 133.448 39.1015C133.139 39.2341 118.041 30.6134 99.8982 20.0034C81.755 9.39339 66.5695 0.640106 66.1722 0.551697C65.7749 0.463272 55.1362 6.78508 42.511 14.5658ZM105.99 40.693L113.848 45.3791L96.4991 55.9891C86.964 61.8246 76.5902 68.1022 73.5001 70.0032L67.8497 73.4072L44.3651 59.349C31.4309 51.6125 20.7039 45.158 20.5273 44.9812C20.3066 44.8486 26.3985 40.914 33.9912 36.2721C41.584 31.6302 51.8695 25.3969 56.7695 22.3465L65.7749 16.8646L81.9316 26.4579C90.8487 31.7187 101.664 38.1289 105.99 40.693ZM210.744 23.7169C216.791 27.342 227.165 33.5312 233.787 37.4658L245.838 44.6275L233.125 52.2314C226.15 56.4312 214.496 63.4161 207.3 67.7486L194.146 75.6177L179.048 66.6433C170.705 61.7362 160.199 55.5028 155.652 52.8061C151.061 50.1094 147.353 47.8105 147.353 47.6779C147.353 47.5453 150.399 45.7327 154.107 43.5665C157.815 41.4445 169.381 34.6364 179.799 28.4914C190.261 22.3023 199.001 17.2183 199.266 17.2183C199.575 17.1741 204.74 20.136 210.744 23.7169ZM124.398 82.7352V108.995L123.427 109.437C122.853 109.702 112.082 116.201 99.4567 123.849L76.5019 137.819L76.237 129.994C76.0604 125.706 75.928 113.991 75.8839 104.044L75.8397 85.9182L99.8099 71.241C112.965 63.1951 123.868 56.5638 124.089 56.5638C124.266 56.5196 124.398 68.3233 124.398 82.7352ZM251.18 85.8298L251.091 113.77L227.607 127.916C214.673 135.697 203.946 142.107 203.769 142.196C203.592 142.284 203.416 129.773 203.416 114.344V86.3603L226.945 72.1252C239.835 64.3003 250.65 57.8901 250.871 57.8901C251.18 57.8459 251.268 67.3507 251.18 85.8298ZM49.1326 78.7565C55.2245 82.3816 60.4335 85.6088 60.6983 85.874C61.1398 86.2719 61.2722 92.6821 61.3605 113.239C61.4488 128.005 61.3163 140.074 61.1398 140.074C60.9191 140.074 55.5335 137.023 49.2209 133.31C42.8642 129.552 32.6228 123.584 26.5309 120.003L15.3625 113.46V85.874V58.2879L26.7516 65.2287C32.9759 69.0306 43.0849 75.1314 49.1326 78.7565ZM164.216 74.1146L187.745 88.1287L187.833 103.381C187.921 111.78 187.833 123.451 187.612 129.331L187.303 140.029L181.565 136.67C178.43 134.813 169.866 129.817 162.583 125.529C155.299 121.197 147.309 116.51 144.837 115.096L140.29 112.443V86.2719C140.29 71.8599 140.378 60.0563 140.467 60.0563C140.555 60.0563 151.238 66.3781 164.216 74.1146ZM158.963 139.853C171.985 147.368 182.624 153.646 182.624 153.778C182.624 153.911 181.388 154.707 179.887 155.591C178.386 156.431 167.262 163.15 155.211 170.489L133.271 183.796L116.364 173.495C107.05 167.881 95.7045 160.984 91.0694 158.243C86.4784 155.458 82.4172 152.982 82.1523 152.717C81.7109 152.319 87.1847 148.871 105.946 137.775L130.358 123.363L132.83 124.733C134.154 125.529 145.94 132.293 158.963 139.853Z" fill="#222222"/>
</svg>
