<svg width="266" height="201" viewBox="0 0 266 201" fill="none" xmlns="http://www.w3.org/2000/svg">
<path d="M42.511 14.5658C29.8858 22.3465 15.23 31.3208 9.93276 34.5038L0.353516 40.2951L0.441804 81.0111L0.574236 121.683L6.75439 125.308C10.1535 127.253 21.9399 134.061 32.8876 140.427C63.038 157.89 126.076 195.378 132.256 199.534L133.712 200.551L159.625 185.078C173.883 176.546 203.46 158.862 225.355 145.732L265.217 121.816L265.306 80.7458L265.438 39.632L264.29 39.0131C262.878 38.3057 220.676 13.3279 208.492 5.98933C203.637 3.07158 199.443 0.684326 199.222 0.684326C198.957 0.684326 191.938 4.70729 183.551 9.65863C143.866 33.0891 133.933 38.9246 133.448 39.1015C133.139 39.2341 118.041 30.6134 99.8982 20.0034C81.755 9.39339 66.5695 0.640106 66.1722 0.551697C65.7749 0.463272 55.1362 6.78508 42.511 14.5658ZM105.99 40.693L113.848 45.3791L96.4991 55.9891C86.964 61.8246 76.5902 68.1022 73.5001 70.0032L67.8497 73.4072L44.3651 59.349C31.4309 51.6125 20.7039 45.158 20.5273 44.9812C20.3066 44.8486 26.3985 40.914 33.9912 36.2721C41.584 31.6302 51.8695 25.3969 56.7695 22.3465L65.7749 16.8646L81.9316 26.4579C90.8487 31.7187 101.664 38.1289 105.99 40.693ZM210.744 23.7169C216.791 27.342 227.165 33.5312 233.787 37.4658L245.838 44.6275L233.125 52.2314C226.15 56.4312 214.496 63.4161 207.3 67.7486L194.146 75.6177L179.048 66.6433C170.705 61.7362 160.199 55.5028 155.652 52.8061C151.061 50.1094 147.353 47.8105 147.353 47.6779C147.353 47.5453 150.399 45.7327 154.107 43.5665C157.815 41.4445 169.381 34.6364 179.799 28.4914C190.261 22.3023 199.001 17.2183 199.266 17.2183C199.575 17.1741 204.74 20.136 210.744 23.7169ZM124.398 82.7352V108.995L123.427 109.437C122.853 109.702 112.082 116.201 99.4567 123.849L76.5019 137.819L76.237 129.994C76.0604 125.706 75.928 113.991 75.8839 104.044L75.8397 85.9182L99.8099 71.241C112.965 63.1951 123.868 56.5638 124.089 56.5638C124.266 56.5196 124.398 68.3233 124.398 82.7352ZM251.18 85.8298L251.091 113.77L227.607 127.916C214.673 135.697 203.946 142.107 203.769 142.196C203.592 142.284 203.416 129.773 203.416 114.344V86.3603L226.945 72.1252C239.835 64.3003 250.65 57.8901 250.871 57.8901C251.18 57.8459 251.268 67.3507 251.18 85.8298ZM49.1326 78.7565C55.2245 82.3816 60.4335 85.6088 60.6983 85.874C61.1398 86.2719 61.2722 92.6821 61.3605 113.239C61.4488 128.005 61.3163 140.074 61.1398 140.074C60.9191 140.074 55.5335 137.023 49.2209 133.31C42.8642 129.552 32.6228 123.584 26.5309 120.003L15.3625 113.46V85.874V58.2879L26.7516 65.2287C32.9759 69.0306 43.0849 75.1314 49.1326 78.7565ZM164.216 74.1146L187.745 88.1287L187.833 103.381C187.921 111.78 187.833 123.451 187.612 129.331L187.303 140.029L181.565 136.67C178.43 134.813 169.866 129.817 162.583 125.529C155.299 121.197 147.309 116.51 144.837 115.096L140.29 112.443V86.2719C140.29 71.8599 140.378 60.0563 140.467 60.0563C140.555 60.0563 151.238 66.3781 164.216 74.1146ZM158.963 139.853C171.985 147.368 182.624 153.646 182.624 153.778C182.624 153.911 181.388 154.707 179.887 155.591C178.386 156.431 167.262 163.15 155.211 170.489L133.271 183.796L116.364 173.495C107.05 167.881 95.7045 160.984 91.0694 158.243C86.4784 155.458 82.4172 152.982 82.1523 152.717C81.7109 152.319 87.1847 148.871 105.946 137.775L130.358 123.363L132.83 124.733C134.154 125.529 145.94 132.293 158.963 139.853Z" fill="#222222"/>
</svg>
